<svg xmlns="http://www.w3.org/2000/svg" viewBox="0 0 537.19 77.65"><title>Asset 2</title><g id="Layer_2" data-name="Layer 2"><g id="Layer_1-2" data-name="Layer 1"><path d="M.18,58.89c-.17.73-.3-.17,0,0Z" fill="#231f20"/><path d="M37.66,55.53l0,0" fill="none"/><path d="M55.22,20c-1.3,2.93-1.19,4.17-2.75,6.18h0a9.5,9.5,0,0,1-4.75,3.32,51.73,51.73,0,0,0-11.35,5.57c-4.6-3.19-8.41-6.63-8.61-9.37-.41-6.13,8.59-6.33,12.9-5.39a23.63,23.63,0,0,1,11.79,5.84c-4.38-5.41-11.29-6.68-17.35-7.1S26.29,23,25.65,26.54s-.9,3.07-.08,5.5,4.15,4.14,6.74,5.92a31.89,31.89,0,0,0-6.13,6.22c-1.58,1.79.32,6.34,1.05,7.92s3.1,5.88,13.43,3.36c3.47-.72,9.62-4.09,11.59-7.06.88-.79,1.12,1.67,5.19,6.55,1.35,1.63,4.85,4.54,6.65,6.34,6.25,6.25,9.63,14.81,10.24,16.36-.71-2.12-5.49-16.4-7.28-19.22-1.91-3,7.57,9.1,9,15.63-.43-2.37-3-14.29-7.28-19.85-1.38-1.16,4.43,1.27,8.86,15.42,0,0-1.77-13-6.79-19.46A54.19,54.19,0,0,1,79.4,65.35S76.86,38.48,62.71,42c-3.91,1-6.08,1.61-7.26,2-1,.34-1.29.54-1.34.63.35.08-.09.14,0,0a8.23,8.23,0,0,0-1.23-.13,150.32,150.32,0,0,1-13.23-7.26A60.81,60.81,0,0,1,52,31c.86-.37,2.79.13,5.13.73,4.21,1.1,9.77,2.55,12.89,0,4.86-3.91,12.48-12.63,8-27.88C74.33-8.83,58.18,13.35,55.22,20Zm-3,27.52a28.83,28.83,0,0,1-9.39,6.38C31.78,58.33,22.91,52.84,31.57,44a52.09,52.09,0,0,1,4.18-3.84A94.38,94.38,0,0,0,52.25,47.52Z" fill="#231f20"/><circle cx="37.53" cy="37.27" r="6.03" fill="#231f20"/><path d="M53.88,71.15h3.44V3.89H53.88V0H50V3.89H34.28A14.85,14.85,0,0,0,19.43,18.74V56.3A14.85,14.85,0,0,0,34.28,71.15H50V75h3.89ZM34.4,63.24h0A8.2,8.2,0,0,1,26.16,55V20a8.2,8.2,0,0,1,8.21-8.21V26.38h6.51V11.8h0a9.67,9.67,0,0,1,9.67,9.67v32.1a9.67,9.67,0,0,1-9.67,9.67V48H34.4Z" fill="#231f20"/><path d="M478.6,3.84c-4.45,15.25,3.16,24,8,27.88,3.12,2.51,8.68,1.06,12.89,0,2.35-.6,4.28-1.1,5.13-.73A60.81,60.81,0,0,1,517,37.23a148.73,148.73,0,0,1-13.23,7.26,8.21,8.21,0,0,0-1.22.13c.08.14-.36.08,0,0a3.47,3.47,0,0,0-1.34-.63c-1.19-.42-3.35-1.06-7.27-2-14.15-3.48-16.69,23.39-16.69,23.39a54.11,54.11,0,0,1,8.6-15.18c-5,6.47-6.8,19.46-6.8,19.46,4.44-14.15,10.24-16.58,8.87-15.42-4.34,5.56-6.86,17.48-7.29,19.85,1.41-6.53,10.88-18.61,9-15.63-1.8,2.82-6.58,17.1-7.29,19.22.61-1.55,4-10.11,10.25-16.36,1.79-1.8,5.29-4.71,6.65-6.34,4.06-4.88,4.3-7.34,5.18-6.55,2,3,8.12,6.34,11.59,7.06,10.34,2.52,12.69-1.78,13.43-3.36S532,46,530.44,44.18A31.56,31.56,0,0,0,524.32,38c2.59-1.78,5.91-3.5,6.74-5.92s.55-1.91-.09-5.5-3.37-7.91-9.45-7.49-13,1.69-17.35,7.1A23.7,23.7,0,0,1,516,20.31c4.31-.94,13.32-.74,12.9,5.39-.19,2.74-4,6.18-8.6,9.37A51.76,51.76,0,0,0,508.9,29.5a9.5,9.5,0,0,1-4.75-3.32h0c-1.56-2-1.44-3.25-2.75-6.18C498.45,13.35,482.29-8.83,478.6,3.84Zm42.27,36.29A52.17,52.17,0,0,1,525.06,44c8.66,8.87-.21,14.36-11.3,9.93a29,29,0,0,1-9.39-6.38A94,94,0,0,0,520.87,40.13Z" fill="#231f20"/><circle cx="519.1" cy="37.27" r="6.03" fill="#231f20"/><path d="M502.74,75h3.89V71.15h15.72A14.84,14.84,0,0,0,537.19,56.3V18.74A14.84,14.84,0,0,0,522.35,3.89H506.63V0h-3.89V3.89h-3.43V71.15h3.43ZM522.22,48h-6.51V63.24A9.68,9.68,0,0,1,506,53.57V21.47a9.68,9.68,0,0,1,9.67-9.67h0V26.38h6.52V11.8a8.2,8.2,0,0,1,8.2,8.21V55a8.2,8.2,0,0,1-8.2,8.2h0Z" fill="#231f20"/><path d="M87.62,71.55,111.5,4h16.38l23.94,67.57h-15l-4.54-13.73H106.64l-4.49,13.73H87.62ZM119.48,19l-8.93,27.16h18Z" fill="#231f20"/><path d="M175.49,71.55V16H155V4h55V16H189.6V71.55H175.49Z" fill="#231f20"/><path d="M255,24.26a10,10,0,0,0-4.23-7.68q-3.85-2.83-10-2.83-5.38,0-8.42,2.38a7.9,7.9,0,0,0-3,6.6q0,3,3.17,4.71t13.26,3.91q14.79,3.27,19.76,7.6t5,13.74a17.88,17.88,0,0,1-7.5,15.11q-7.5,5.61-20.29,5.6T222.6,67.46q-7.22-5.94-7.69-16.88h13.58a10.46,10.46,0,0,0,3.91,8.29q3.69,2.91,10.25,2.91,6.76,0,10.56-2.19T257,53.54a6.21,6.21,0,0,0-2.75-5.6q-2.64-1.8-11.41-3.75-16.06-3.6-21.51-7.77T216,23.53q0-9.84,7.14-15.62t19.28-5.78q11.37,0,18.47,6t7.9,16.14Z" fill="#231f20"/><path d="M338.39,47.88q-1.27,11.73-9.17,18.63T309.17,73.4q-14.26,0-22.67-9.51t-8.4-25.73q0-16.59,8.4-26.31t22.67-9.72q12,0,19.92,6.52t9.3,17.62H324.23a12.73,12.73,0,0,0-4.7-8.66,15.87,15.87,0,0,0-10.25-3.23A14.26,14.26,0,0,0,297,20.65q-4.43,6.26-4.43,17.41,0,10.83,4.43,17a14.38,14.38,0,0,0,12.32,6.13,14.87,14.87,0,0,0,10.25-3.57,14.65,14.65,0,0,0,4.7-9.7Z" fill="#231f20"/><path d="M343.88,71.55,367.77,4h16.38l23.93,67.57h-15l-4.55-13.73H362.91l-4.5,13.73H343.88ZM375.75,19l-8.93,27.16h18Z" fill="#231f20"/><path d="M417.17,71.55V4h28.27Q457,4,463,9.39t6,15.72q0,10.94-6,16.62t-17.54,5.68q-8.19-.06-14.16.1v24H417.17Zm14.11-35.77h11.78c3.95,0,6.9-.87,8.88-2.61s3-4.38,3-7.9q0-4.82-3-7.24c-2-1.62-4.93-2.43-8.88-2.43H431.28Z" fill="#231f20"/></g></g></svg>