<svg xmlns="http://www.w3.org/2000/svg" viewBox="0 0 535.06 413.21"><title>Asset 1</title><g id="Layer_2" data-name="Layer 2"><g id="Layer_1-2" data-name="Layer 1"><path d="M490.27,152.17H377.6l1-.83c11.2-9.35,31.3-33.47,43.65-45.82,43.09-43.09,102.1-66.38,112.78-70.6-14.59,4.91-113,37.84-132.42,50.19C382,98.26,465.33,33,510.32,23.28c-16.34,3-98.49,20.34-136.79,50.21-8,9.46,8.74-30.55,106.24-61.1,0,0-89.48,12.23-134,46.81C351.46,54.64,395,19.11,450.26,0c0,0-185.13,17.48-161.12,115,4.07,16.51,7.3,28.5,9.86,37.19H218.68c7.48-28.85,16.88-66.26-.13-87.42-26.9-33.48-87-85.94-192.08-55.29-74.4,21.7,25.54,105.73,85.1,142.71H26.83v23.68H0v26.78H26.83V310.92A102.27,102.27,0,0,0,129.11,413.21H387.94A102.32,102.32,0,0,0,490.27,310.92V202.63h26.78V175.85H490.27ZM381.93,310.05c-3.05,42.86-35,62.5-79,19.53q-7.44-7.27-14.11-14.6a41.54,41.54,0,0,0,4.66-45.93,687,687,0,0,0,30-70.56H338c13.27,15.28,25.28,33.07,33.39,53.27q2.72,6.81,4.71,13.42H330.49v44.87Zm-200.16.26V265.4H140.31C144,249,150,224.58,169.59,198.49h23.59a64.57,64.57,0,0,1,10.09,19.8C206.93,230,213.7,246.37,223,264.35a41.4,41.4,0,0,0,3.51,52.6c-17.34,21.84-34.84,37.82-49.45,38.85-25.87,1.77-36.42-20.86-39.21-45.49Zm89.35-60.77a41,41,0,0,0-29.5.32,406.27,406.27,0,0,1-24.49-51.37h81.64C292.45,210.93,282.72,229.48,271.12,249.54ZM257.85,330a41.54,41.54,0,0,0,7.53-.84c11.83,14.34,24.95,27.4,39,37.51.06.06.15.1.21.15H228.52C239.77,359,248.84,343.77,257.85,330ZM81.31,265.14A66.66,66.66,0,0,1,148,198.49h19c-16.85,19.19-25.75,42.83-30.62,66.91h-55Zm0,45.17h49.81c-.17,31.6,19.06,49.06,39.13,56.54h-32.4A56.53,56.53,0,0,1,81.31,310.31Zm354.47,0a56.53,56.53,0,0,1-56.54,56.54H340.19a162.94,162.94,0,0,0,18.79-7.4c8.23-3.85,27.11-14,28.43-49.4h48.37Zm-54-45.13c-4.5-19.16-19.6-48.65-35.63-66.69h23a66.7,66.7,0,0,1,66.68,66.69Z" fill="#231f20"/></g></g></svg>